<?xml version="1.0" encoding="UTF-8"?>
<svg id="_图层_2" data-name="图层 2" xmlns="http://www.w3.org/2000/svg" viewBox="0 0 242.36 27.01">
  <defs>
    <style>
      .cls-1 {
        fill: #000;
      }
    </style>
  </defs>
  <g id="_图层_2-2" data-name=" 图层 2">
    <g id="_图层_1-2" data-name=" 图层 1-2">
      <g>
        <path class="cls-1" d="M20.24,.02c2.27,0,4.49,.33,6.68,.99,.74,.22,1.5,.52,2.29,.88,.35,.15,.86,.44,1.52,.88,1.05,.69,1.84,1.42,2.34,2.21,.66,.98,1,1.98,1,2.98v.63c0,1.65-.78,3.2-2.34,4.68-1.42,1.22-3.2,2.18-5.34,2.85-.44,.14-.64,.47-.43,.75,1.39,1.85,3.35,4.48,5.89,7.89,.44,.58,.79,1.05,1.06,1.41,.28,.37-.16,.8-.81,.8h-4.69c-.35,0-.66-.12-.81-.31-.28-.36-.75-1.03-1.43-2.01-1.09-1.57-2.77-3.9-5.04-7-.23-.34-.37-.55-.41-.63H5.86s-.1,0-.18,.04v9.91H0V0M5.68,5.33v6.74c0,.24,.42,.43,.94,.43h13.87c2.65,0,4.89-.42,6.72-1.27,1.42-.74,2.14-1.59,2.14-2.57v-.25c0-1.32-1.32-2.31-3.97-2.97-1.47-.36-3.03-.54-4.7-.54H6.62c-.52,0-.94,.19-.94,.43h0Z"/>
        <path class="cls-1" d="M46.98,.02h5.62V10.35c0,.31,.4,.57,.9,.57h20.9c.5,0,.9-.25,.9-.57V.02h5.68V26.99h-5.68V15.88c0-.31-.4-.57-.9-.57h-20.9c-.5,0-.9,.25-.9,.57v11.11h-5.68V.02h.06Z"/>
        <path class="cls-1" d="M130.4,.02h.06V21.49c0,.31,.4,.57,.9,.57h27.03c.5,0,.9,.25,.9,.57v3.8c0,.31-.4,.57-.9,.57h-33.35c-.15,0-.27-.08-.27-.17V.19c0-.09,.11-.16,.25-.16h5.38Z"/>
        <path class="cls-1" d="M214.98,.02s.49,.45,1.35,1.36c1.68,1.79,4.18,4.47,7.5,8.03,.31,.29,.88,.9,1.7,1.81h.06c1.02-1.08,3.03-3.24,6.04-6.48,.71-.75,2.11-2.23,4.19-4.43,.16-.17,.46-.28,.78-.28h4.86c.7,0,1.13,.48,.77,.86l-6.9,7.1c-.94,.98-2.81,2.93-5.62,5.86-.04,.05-.12,.14-.23,.26,1.29,1.35,3.93,4.08,7.91,8.18,.65,.69,1.88,1.97,3.68,3.85,.36,.38-.07,.86-.77,.86h-5.26s-1.08-1.09-3.11-3.28c-1.33-1.42-3.34-3.56-6.04-6.41-.08-.05-.18-.16-.29-.33-.08,.1-1.84,1.98-5.27,5.64-.89,.94-2.21,2.3-3.95,4.11-.16,.17-.46,.28-.77,.28h-4.71c-.7,0-1.14-.47-.78-.85,1.4-1.47,3.65-3.8,6.75-7,.82-.83,2.44-2.51,4.86-5.01v-.04c-1.2-1.24-3.58-3.72-7.16-7.44l-.17-.17c-.36-.34-2.17-2.21-5.43-5.6-.36-.38,.07-.86,.77-.86h5.26l-.02-.02Z"/>
        <g>
          <rect class="cls-1" x="167.53" y="21.98" width="28.06" height="5.01" rx=".72" ry=".72"/>
          <rect class="cls-1" x="167.53" y="11" width="23.62" height="5.01" rx=".72" ry=".72"/>
          <rect class="cls-1" x="167.53" y=".02" width="28.06" height="5.01" rx=".72" ry=".72"/>
        </g>
        <rect class="cls-1" x="98.94" y=".02" width="5.62" height="26.97" rx=".74" ry=".74"/>
      </g>
    </g>
  </g>
</svg>
